<svg id="Layer_1" data-name="Layer 1" xmlns="http://www.w3.org/2000/svg" xmlns:xlink="http://www.w3.org/1999/xlink" viewBox="0 0 1048.28 219.05"><defs><style>.cls-1{fill:#141414;}.cls-2{fill:url(#linear-gradient);}</style><linearGradient id="linear-gradient" x1="830.14" y1="192.05" x2="981.13" y2="24.36" gradientTransform="matrix(1, 0, 0, -1, 0, 222)" gradientUnits="userSpaceOnUse"><stop offset="0" stop-color="#9074c2"/><stop offset="0.03" stop-color="#8395cf"/><stop offset="0.07" stop-color="#76b5db"/><stop offset="0.12" stop-color="#6bcfe5"/><stop offset="0.16" stop-color="#63e3ed"/><stop offset="0.22" stop-color="#5df1f3"/><stop offset="0.28" stop-color="#5af9f6"/><stop offset="0.39" stop-color="#59fcf7"/><stop offset="0.94" stop-color="#fbd651"/></linearGradient></defs><title>Logo_holo</title><g id="Layer_1-2" data-name="Layer 1-2"><path class="cls-1" d="M156.41,129.44c0,33.3-29.52,42.66-79,42.66C20.52,172.1,0,155.9,0,128.54H51.66c0,9.72,8.28,13.14,28.62,13.14,16.38,0,23.4-2.34,23.4-8.46,0-6.66-5.22-6.66-45-11.7-39.24-5-55.26-13.5-55.26-39.59,0-27.72,23.4-41,72.18-41,53.63,0,72.53,17.28,72.53,41h-50c0-7.2-6.3-10.8-22.86-10.8-17.28,0-22.86,3.42-22.86,8.64,0,6.84,9.18,7.38,32,9.72C127.25,93.8,156.41,96,156.41,129.44Z"/><path class="cls-1" d="M313.19,87c0,33.65-23.4,45-58.14,45H214.92v37.4h-49.5V43.4h93.05C295.91,43.41,313.19,58.53,313.19,87Zm-49.32.36c0-7.92-5.22-11.34-16-11.34h-33V99.75h32.94c10.79,0,16-3.75,16-12.42Z"/><path class="cls-1" d="M411.48,151.58H355.32l-7,17.82H297l58.32-126h56.16l58.31,126H418.5Zm-13-32.4L383.4,80.67l-15.12,38.51Z"/><path class="cls-1" d="M553.68,130.16H526.5V169.4H477V43.4h94.67c36.36,0,54.9,13.68,54.9,42.48,0,19.43-9.9,31.67-25.38,38.15l29.16,45.36h-52.2ZM526.5,98h34.55c10.62,0,16-3.42,16-11.52,0-7.74-5.4-10.44-16-10.44H526.5Z"/><path class="cls-1" d="M703.79,123.86l-14.93,13.5v32h-49.5v-126h49.5v40l41.93-40h61.38L737.09,93.63l57.6,75.77H736.37Z"/><path class="cls-2" d="M921.21,0C851,0,794.11,44.69,794.11,99.81c0,26.84,13.5,51.2,35.45,69.14l-13,50.1,78.94-21.47a161.17,161.17,0,0,0,25.68,2c70.2,0,127.1-44.69,127.1-99.81S991.41,0,921.21,0Zm-8.65,56.68c-1-7.53-8.65-10.08-21.86-8.23S872.35,57,873.3,67.84l-25.84,3.62c-1.91-24.92,15.34-37.19,40-40.66,22.86-3.21,47.19-2.13,50.62,22.29,4,28.11-33.34,27.55-31,44.16l-22.71,3.19C880.29,71.2,914.7,71.87,912.56,56.68Zm-11.37,77.75a14.19,14.19,0,1,1,12.08-16v0A14.23,14.23,0,0,1,901.19,134.43Zm44.1,27.29a17.91,17.91,0,1,1,.43-.89C945.59,161.13,945.44,161.43,945.29,161.72Zm6.85-27.1-21.5-10.53,30.48-77.86,33.79,16.54Z"/></g></svg>