<svg xmlns="http://www.w3.org/2000/svg" viewBox="0 0 362.18 254.81"><defs><style>.cls-1{fill:#231f20;}.cls-2{fill:#fff;}</style></defs><title>Asset 1</title><g id="Layer_2" data-name="Layer 2"><g id="Layer_1-2" data-name="Layer 1"><path class="cls-1" d="M58.75,41.31c-1.32-4.05-2-6.07-3.29-10.11Q69.71,17.09,84,3c.37,18.91-6,37,17,36.93-7.15,5.46-10.85,8.54-19,14.89-7.91.14-17.66,3.92-19-.15C48.31,65,30.91,74.31,18.62,87.67q33.32,23.74,66.17,48.09c-.16,8.33-.23,12.5-.39,20.84C58.85,133.13,32.71,110.26,7.47,86.46Q33.08,63.84,58.75,41.31Z" transform="translate(-7.47 -2.99)"/><path class="cls-1" d="M108.73,39.89l22-.08c-11.57,12.38-23.63,24-36.06,35.55l19.3-.11c11-11.42,21.64-22.75,31.07-35.5l22.14-.08c-6.14,15.6-27.4,31.23-28.57,47-1,13.11,21.22,33.37,26.57,47l-22.12-.08c-10.63-14.83-22.83-28-35.1-41.47L88,92.1c13.95,13.54,27.71,27,40.75,41.47l-22-.08c-18.42-15.85-37.1-31.34-55.86-46.79C70.35,71.26,89.72,55.84,108.73,39.89Z" transform="translate(-7.47 -2.99)"/><path class="cls-1" d="M202.82,39.53c3.58,18-14.1,30.53-14.43,47.17s15.51,29.3,12.39,47.13l-21.94-.08c-3-15.78-22.08-32.44-21.13-47,1.09-16.62,20-29.59,23.15-47.08Z" transform="translate(-7.47 -2.99)"/><path class="cls-1" d="M235.05,107.2c.68,2.86,1.11,4.31,1.67,7.13,1.33,6.9,2.27,9.51,8.09,9.61s8.57-3.85,8.26-9c-.74-12.41-12.72-17.42-22.07-22.35-13.23-7-25.55-14.87-18.62-31.68,5.29-12.83,11.35-23.28,27.07-22.3,12.91.8,38.05,1.71,39.58,20.17.08,2.28,0,3.47-.07,5.79-10.1-.81-15.85-.19-26.48-.07.42-2.48.73-3.75,1-6.18.76-6.41-1.91-9-7-8.93-4.63.08-5.28,2.63-6.29,8.43-1.09,6.31-1.14,9.57,10.34,16.53,14.4,8.22,30.26,18.89,29.79,37.05-.51,20-28.84,22.44-42.64,23.21-16,.88-23.32-7.4-28-21.81l-2.38-5.94Z" transform="translate(-7.47 -2.99)"/><path class="cls-1" d="M116.18,151.83c-7-.12-10.85-.63-17.36.52,3-6.34,5.94-9,12.6-11.44,15.94-2.41,32.74-1.15,48.83-1.15-2.56,3.42-3.54,6.3-3.27,12.78l-17.66-.3c1.69,15.95,5.93,29.07,4,44.79-1.63,13.34-11.22,26.77.31,38.73H124.2c-14.92-9-8.79-24.79-8-38.61C117.13,181.93,115.34,167.09,116.18,151.83Z" transform="translate(-7.47 -2.99)"/><path class="cls-1" d="M167.06,139.76h19.49c-.68,13.33,6.8,24.57,12.85,35.81l17.36.11c-7.27-11.4-15.12-22.33-17.56-35.92h19.6c7.44,13.63,29.37,33.38,30,48,.57,12.2-24.85,35.81-31.84,48h-19.6c3.5-16,14.1-29,23.1-42.25l-18,.05c-7.51,13-18,26.47-17.8,42.2H165.27c-6.73-17.66,10.09-31.24,10-48C175.15,172,159.08,155.93,167.06,139.76Z" transform="translate(-7.47 -2.99)"/><path class="cls-1" d="M267.46,214.4c-7.93,7-15.64,14.13-23.36,21.36H224.21c9.55-10.95,44.14-35.6,45-48,1-14-21.13-35.56-29-48h29.09c12.44,9.12,24.81,18.29,37.49,27.07,7.31,5.07,25,12.14,25.5,20.93.8,12.88-40.37,39.7-50.18,48H262c7.17-7.11,14.14-14.43,21.26-21.6Zm33.85-17.31c19.9-8.91-23.14-35.06-31.25-42.21l-.92,0c7.65,8.19,42.24,33.88,19.34,42.29Z" transform="translate(-7.47 -2.99)"/><path class="cls-1" d="M313.36,152.63c-1.12,3.76-6.42,2.52-13.43,2.4-8.32-6.5-12.16-9.65-19.68-15.27,12.54,3,10.31-4.7,10.31-14.16V101.11q14.67,14.81,29.35,29.6l-2.83,9.48q26.18,23.77,52.57,47.3c-25.6,24.21-52.64,47-79.09,70.31V238.38c23.06-16.44,46-33,69-49.58C345.58,175.09,329,164.34,313.36,152.63Z" transform="translate(-7.47 -2.99)"/><circle class="cls-2" cx="190.97" cy="125.88" r="34.21"/><path class="cls-1" d="M197.22,117.47,196.89,136c-.13,7.89-3.78,11.3-10.82,11.3-6.69,0-10-3.55-9.91-11.31l.34-18.91c.13-7.69,4.34-11,10.47-11C193.25,106.11,197.35,109.5,197.22,117.47Zm-12.94-1L183.91,137c0,2.45.75,3.79,2.5,3.79s2.61-1.2,2.65-3.81l.37-20.54c0-2.48-.63-3.78-2.57-3.78C185.23,112.68,184.32,113.86,184.28,116.51Z" transform="translate(-7.47 -2.99)"/><path class="cls-1" d="M208.85,129.35l-.3,17.39h-7.68l.71-40h9.92c6.71,0,10,3,9.88,10l0,1.51c-.09,5.63-2.34,7.33-4.11,8.13,2.43,1.2,3.59,3,3.48,8.67-.08,3.86-.21,9.63.08,11.73h-7.44c-.47-1.81-.36-6.94-.25-12.15.07-4.45-.43-5.24-3.33-5.24Zm.13-6.06h1c2.58,0,3.62-.81,3.68-4.53l0-2c0-2.69-.48-4-3.29-4h-1.2Z" transform="translate(-7.47 -2.99)"/></g></g></svg>