<?xml version="1.0" encoding="utf-8"?>
<!-- Generator: Adobe Illustrator 23.0.2, SVG Export Plug-In . SVG Version: 6.00 Build 0)  -->
<svg version="1.1" id="Layer_1" xmlns="http://www.w3.org/2000/svg" xmlns:xlink="http://www.w3.org/1999/xlink" x="0px" y="0px"
	 viewBox="0 0 148 104" style="enable-background:new 0 0 148 104;" xml:space="preserve">
<style type="text/css">
	.st0{clip-path:url(#SVGID_2_);}
	.st1{fill:#393939;}
</style>
<g>
	<defs>
		<rect id="SVGID_1_" width="148" height="104"/>
	</defs>
	<clipPath id="SVGID_2_">
		<use xlink:href="#SVGID_1_"  style="overflow:visible;"/>
	</clipPath>
	<g class="st0">
		<path class="st1" d="M21,15.6c-0.5-1.7-0.8-2.5-1.3-4.1C23.5,7.7,27.4,3.8,31.3,0c0.2,7.7-2.5,15.1,6.9,15.1
			c-2.9,2.2-4.4,3.5-7.8,6.1c-3.2,0.1-7.2,1.6-7.8-0.1c-6,4.2-13.1,8-18.1,13.5c9.1,6.5,18.1,13,27,19.6c-0.1,3.4-0.1,5.1-0.2,8.5
			C21,53.1,10.3,43.8,0,34.1C7,27.9,14,21.8,21,15.6z"/>
		<path class="st1" d="M41.4,15.1l9,0c-4.7,5.1-9.7,9.8-14.7,14.5l7.9,0c4.5-4.7,8.8-9.3,12.7-14.5l9,0
			c-2.5,6.4-11.2,12.7-11.7,19.2c-0.4,5.4,8.7,13.6,10.9,19.2l-9,0c-4.3-6.1-9.3-11.4-14.3-16.9l-8.2,0c5.7,5.5,11.3,11,16.7,16.9
			l-9,0C33,46.8,25.4,40.5,17.7,34.2C25.7,27.9,33.6,21.6,41.4,15.1z"/>
		<path class="st1" d="M44.4,60.7c-2.9,0-4.4-0.3-7.1,0.2c1.2-2.6,2.4-3.7,5.1-4.7c6.5-1,13.4-0.5,20-0.5c-1,1.4-1.4,2.6-1.3,5.2
			l-7.2-0.1c0.7,6.5,2.4,11.9,1.6,18.3c-0.7,5.4-4.6,10.9,0.1,15.8h-7.9c-6.1-3.7-3.6-10.1-3.3-15.8C44.8,73,44.1,67,44.4,60.7z"/>
		<path class="st1" d="M106.2,86.3c-3.2,2.9-6.4,5.8-9.5,8.7h-8.1c3.9-4.5,18-14.5,18.4-19.6c0.4-5.7-8.6-14.5-11.9-19.6H107
			c5.1,3.7,10.1,7.5,15.3,11c3,2.1,10.2,5,10.4,8.5c0.3,5.3-16.5,16.2-20.5,19.6H104c2.9-2.9,5.8-5.9,8.7-8.8L106.2,86.3z
			 M120.1,79.2c8.1-3.6-9.5-14.3-12.8-17.2h-0.4c3.1,3.3,17.3,13.8,7.9,17.3L120.1,79.2z"/>
		<path class="st1" d="M125,61.1c-0.5,1.5-2.6,1-5.5,1c-3.4-2.7-5-3.9-8-6.2c5.1,1.2,4.2-1.9,4.2-5.8V40c4,4,8,8.1,12,12.1l-1.2,3.9
			c7.1,6.5,14.3,12.9,21.5,19.3c-10.5,9.9-21.5,19.2-32.3,28.7v-7.9c9.4-6.7,18.8-13.5,28.2-20.2C138.2,70.2,131.4,65.9,125,61.1z"
			/>
		<path class="st1" d="M77.5,46.7l-0.1,7.6c-0.1,3.2-1.5,4.6-4.4,4.6c-2.7,0-4.1-1.4-4-4.6l0.1-7.7c0.1-3.1,1.8-4.5,4.3-4.5
			C75.9,42.1,77.6,43.5,77.5,46.7z M72.3,46.3l-0.2,8.4c0,1,0.3,1.5,1,1.5c0.7,0,1.1-0.5,1.1-1.6l0.2-8.4c0-1-0.3-1.5-1.1-1.5
			C72.6,44.8,72.3,45.3,72.3,46.3L72.3,46.3z"/>
		<path class="st1" d="M82.3,51.6l-0.1,7.1H79l0.3-16.3h4.1c2.7,0,4.1,1.2,4,4.1V47c0,2.3-1,3-1.7,3.3c1,0.5,1.5,1.2,1.4,3.5
			c0,1.6-0.1,3.9,0,4.8h-3c-0.2-0.7-0.1-2.8-0.1-5c0-1.8-0.2-2.1-1.4-2.1L82.3,51.6z M82.3,49.1h0.4c1.1,0,1.5-0.3,1.5-1.8v-0.8
			c0-1.1-0.2-1.6-1.3-1.6h-0.5L82.3,49.1z"/>
		<path class="st1" d="M74.5,37.9c-0.4-1.2-0.6-2.4-0.5-3.7c0.1-6.8,7.4-11.9,5.9-19.3l-9,0.1c-1.3,7.1-9,12.4-9.5,19.2
			c-0.2,3.3,2.1,6.9,4.4,10.5C67.6,41.4,70.7,38.9,74.5,37.9z"/>
		<path class="st1" d="M99.3,29.1c-4.7-2.8-4.7-4.2-4.2-6.7c0.4-2.4,0.7-3.4,2.6-3.4c2.1,0,3.2,1,2.9,3.6c-0.1,1-0.2,1.5-0.4,2.5
			c4.3,0,6.7-0.3,10.8,0c0-0.9,0.1-1.4,0-2.4c-0.6-7.5-10.9-7.9-16.2-8.2c-6.4-0.4-8.9,3.9-11.1,9.1c-2.8,6.9,2.2,10.1,7.6,12.9
			c3.8,2,8.7,4.1,9,9.1c0.1,2.1-1,3.7-3.4,3.7c-2.4,0-2.8-1.1-3.3-3.9c-0.2-1.2-0.4-1.7-0.7-2.9l-4.2-0.1c2,2.4,3.2,5.5,3.2,8.9
			c0,0.8-0.1,1.6-0.2,2.3c0.7,0.1,1.5,0.1,2.3,0c5.6-0.3,17.2-1.3,17.4-9.5C111.7,36.8,105.2,32.5,99.3,29.1z"/>
		<path class="st1" d="M89.1,59.9c-1.8,2.3-4.3,4.1-7.2,4.9c1.1,1.9,2.4,3.8,3.6,5.7l-7.1,0c-0.9-1.8-2-3.5-2.9-5.3
			c-4.9-0.9-8.8-4.3-10.6-8.8c-2.7,6.4,3.5,12.8,3.6,19.1c0,6.8-6.8,12.4-4.1,19.6h7.9c-0.1-6.4,4.2-11.9,7.3-17.2l7.4,0
			c-3.7,5.4-8,10.7-9.4,17.2h8c2.9-5,13.2-14.6,13-19.6C98.4,70.8,93,64.9,89.1,59.9z"/>
	</g>
</g>
</svg>
