<svg width="223" height="63" viewBox="0 0 223 63" fill="none" xmlns="http://www.w3.org/2000/svg">
<g clip-path="url(#clip0)">
<path d="M8.81812 0.406197C9.21906 21.0156 9.19973 41.625 8.76016 62.2343L0 63V0L8.81812 0.406197Z" fill="#3E3E3E"/>
<path d="M33.3306 38.6462C33.3306 40.5406 33.3125 41.4895 33.2654 43.3695C33.2074 51.0477 30.983 60.8971 21.8895 61.9719C12.9373 63.0287 12.6801 51.4216 12.5098 45.4616C12.5787 35.8603 12.5678 26.2554 12.5352 16.6504C12.7453 10.385 13.238 -0.575159 22.2772 0.179719C30.8308 0.898651 33.1458 9.52583 33.3052 16.7152C33.3523 18.9259 33.3523 20.0366 33.3487 22.2581H24.1248C24.1248 19.3824 24.1248 17.9445 24.0669 15.0904C24.0161 12.6532 23.8495 11.2153 22.7699 11.1938C21.6902 11.1722 21.5598 12.3405 21.6069 15.0652C21.7265 25.6659 21.7446 36.2737 21.5526 46.8815C21.4801 49.8651 21.6576 50.9255 22.567 50.8788C23.585 50.8213 23.9256 49.7429 24.0161 46.5005C24.0958 43.4738 24.1212 41.9497 24.1248 38.8978L33.3306 38.6462Z" fill="#3E3E3E"/>
<path d="M52.4233 34.7891L45.4347 34.9545C45.4673 39.4154 45.3731 43.8728 45.0724 48.323L53.4268 47.8988C52.8073 51.4719 52.032 55.0522 51.1372 58.5678L35.1421 59.9517C36.8985 40.5698 36.9797 21.0744 35.3848 1.67871L51.4053 2.44078C51.927 5.99949 52.3074 9.6301 52.5247 13.2248L45.2246 13.1097C45.4275 16.5534 45.4818 20.033 45.442 23.4803L52.4305 23.4516C52.4305 27.2307 52.4281 31.0099 52.4233 34.7891Z" fill="#3E3E3E"/>
<path d="M55.1187 2.51627L63.9223 2.92246C70.8493 3.15252 74.6751 8.67392 75.0627 15.1623C75.128 16.0214 75.1533 16.4564 75.1968 17.3191C75.4939 20.7664 74.9142 26.1907 71.5413 28.2253C75.128 30.2131 76.1315 35.2888 75.8706 39.0092C75.8236 40.7598 75.7728 41.6262 75.6315 43.3228C75.1424 50.221 71.592 56.8567 63.9948 57.4283L54.7745 58.2263C57.5274 39.7646 57.6432 21.01 55.1187 2.51627ZM64.9005 24.3574C67.3822 24.3574 68.3169 23.1496 68.2119 18.872C68.1865 17.7181 68.1611 17.1429 68.0959 15.9962C67.893 12.4555 66.8822 10.9062 64.5672 10.8559L63.2014 10.8307C63.6427 15.328 63.8217 19.8468 63.7376 24.3646L64.9005 24.3574ZM62.9224 49.8795L64.3716 49.7968C66.9656 49.6458 67.8749 47.9743 68.1865 43.9196C68.3387 41.9137 68.3894 40.8964 68.4256 38.8475C68.5053 34.5339 67.7445 32.6503 64.7266 32.715H63.7267C63.8245 38.4524 63.5558 44.1902 62.9224 49.8939V49.8795Z" fill="#3E3E3E"/>
<path d="M86.743 33.5526C86.7212 41.1013 86.1524 48.4668 83.9533 55.7208L76.8452 56.3391C80.7362 39.5413 80.8304 20.4536 77.3307 3.57669L86.6198 4.02243C93.7025 4.26687 97.8797 9.77388 98.3435 16.5031C98.4087 17.2472 98.434 17.6246 98.4703 18.3795C98.7492 21.9742 97.9884 27.1037 94.7061 29.3216C98.1333 31.5935 98.3869 37.0753 98.0247 40.6556C97.5392 45.3934 96.4704 50.0772 95.2894 54.7395L88.4059 55.3362C89.2246 50.3684 90.3514 45.4437 90.7716 40.5118C91.2716 34.6993 90.4093 33.4699 87.6125 33.5346L86.743 33.5526ZM86.7719 25.3244H87.6849C90.1412 25.3244 91.2716 24.1777 91.123 19.2135C91.0904 18.1782 91.0651 17.6642 90.989 16.6433C90.7245 13.1061 89.8659 11.4382 87.1813 11.3807L86.0437 11.3555C86.7502 15.9783 86.8263 20.6333 86.7719 25.3244Z" fill="#3E3E3E"/>
<path d="M117.701 32.4813L109.821 32.6575C109.919 37.2766 109.676 41.8598 108.643 46.3747L117.784 45.875C116.918 48.3886 115.774 50.7997 114.375 53.0644L99.1586 54.3836C104.169 39.1602 104.26 20.0079 99.7817 4.63351L115.038 5.35245C116.089 7.75706 116.857 10.2746 117.324 12.8545L109.082 12.6963C109.756 16.3706 110.008 20.1091 109.832 23.8398L117.715 23.8002C117.711 27.2907 117.708 29.0197 117.701 32.4813Z" fill="#3E3E3E"/>
<path d="M127.707 42.2049C126.722 45.792 125.182 49.2056 123.142 52.3239L115.875 52.9529C123.233 39.6527 126.127 20.565 122.505 5.74066L133.196 6.2511C139.717 17.887 143.264 38.6606 137.043 51.1161L129.671 51.7559C131.151 48.6836 132.086 45.3807 132.435 41.9928L127.707 42.2049ZM132.573 33.8365C132.094 27.1037 132.37 19.8173 130.334 13.3002H130.062C131.149 20.0079 129.75 27.2403 129.105 33.93L132.573 33.8365Z" fill="#3E3E3E"/>
<path d="M142.485 6.69684L149.394 7.02755C152.814 12.779 152.618 19.2278 152.241 25.6335H152.379C154.382 19.6879 156.274 13.5806 154.737 7.28277L162.614 7.66021C163.472 13.347 161.632 18.3795 159.603 23.6025C161.027 31.9817 163.9 41.2703 159.212 49.1929L151.727 49.8435C154.962 44.6025 154.792 38.4916 154.14 32.6323C153.133 35.0264 152.691 36.2485 151.375 38.5707C150.498 42.8839 148.601 46.9287 145.84 50.372L138.974 50.9687C146.003 39.6958 148.752 18.8971 142.485 6.69684Z" fill="#3E3E3E"/>
<path d="M182.775 30.6193L174.685 30.7954C174.272 35.2672 173.29 39.5664 170.863 43.4199L180.467 42.8735C178.96 44.8177 177.128 46.4907 175.051 47.8198L159.994 49.1282C168.066 40.0014 173.689 19.1487 166.925 7.84714L181.71 8.56607C183.003 10.2484 183.521 11.3124 184.163 13.6705L175.71 13.48C176.54 16.6145 176.362 20.5363 175.689 23.6744L183.782 23.6277C183.369 26.4171 183.174 27.8155 182.775 30.6193Z" fill="#3E3E3E"/>
<path d="M192.528 30.1268C191.216 37.5714 188.956 42.1869 183.039 47.1296L178.174 47.5501C186.608 40.0517 194.212 19.1523 186.532 8.77814L193.26 9.10166C198.332 9.2095 205.052 11.4705 205.44 17.4125C205.491 18.1551 205.479 18.9006 205.404 19.6412C205.056 23.0525 203.567 26.5717 200.147 27.7831C202.994 30.0621 202.839 34.1421 201.462 37.2478C199.813 40.8913 197.155 43.9944 193.796 46.1949L188.963 46.6155C192.542 44.0453 195.444 40.5046 196.904 36.3851C198.545 31.7588 197.306 30.0298 194.154 30.0945L192.528 30.1268ZM193.368 25.2668H194.839C198.487 25.2309 200.085 23.829 200.331 19.3572C200.387 18.615 200.378 17.8694 200.306 17.1285C200.031 13.8933 198.292 12.4231 195.151 12.3333L193.339 12.2829C194.977 16.5318 194.278 20.9281 193.368 25.2668Z" fill="#3E3E3E"/>
<path d="M208.418 37.8266C208.219 38.222 208.114 38.4161 207.889 38.8007C205.607 42.6758 204.592 43.7614 207.476 43.5565C209.932 43.3803 213.084 41.9533 215.301 38.7971C217.837 35.2025 216.08 31.0722 213.428 28.121C209.998 24.3143 209.316 20.0079 208.316 15.2449C207.356 10.7336 206.867 9.62288 211.193 9.70915C215.624 9.79543 221.971 12.9443 222.906 17.7217C222.957 18.0108 222.994 18.3023 223.015 18.5952C221.784 18.2778 220.524 18.0851 219.254 18.02C219.239 17.6939 219.208 17.3688 219.16 17.0459C218.776 14.1198 216.624 11.9271 213.602 11.8228C211.313 11.7473 211.682 12.9731 212.28 15.608C213.005 18.7425 213.367 21.1869 216.149 24.627C219.189 28.2792 222.786 34.5482 219.048 39.0056C215.584 43.1431 208.769 44.3509 204.397 45.4976C198.02 47.1691 203.607 39.4621 204.078 38.7037C204.237 38.4305 204.313 38.2903 204.462 38.0135L208.418 37.8266Z" fill="#3E3E3E"/>
</g>
<defs>
<clipPath id="clip0">
<rect width="223" height="63" fill="white"/>
</clipPath>
</defs>
</svg>
