<svg width="150" height="105" viewBox="0 0 150 105" fill="none" xmlns="http://www.w3.org/2000/svg">
<g clip-path="url(#clip0)">
<path d="M13.0241 27.0178C14.8169 25.2044 16.7882 23.5774 18.9077 22.1617C26.501 16.5 21.3322 39.7478 21.0614 41.6484C19.7016 53.0589 19.5527 64.5818 20.6173 76.0237C20.9637 78.8991 25.9681 100.887 18.89 96.9436C16.6172 95.4228 14.5137 93.6619 12.6155 91.6914C-4.69352 72.1068 -3.84538 46.5979 13.0241 27.0178ZM11.9539 86.1231C12.4379 86.3279 12.6822 86.4258 13.1706 86.6261C15.6218 87.6053 14.7425 84.2893 13.4637 78.0979C11.2301 65.5187 11.3989 52.6289 13.961 40.1128C15.3154 34.2285 15.9015 31.4866 13.517 32.4303L12.3447 32.9021C5.48855 50.684 5.19547 68.2745 11.9539 86.1231Z" fill="#393939"/>
<path d="M42.4068 65.4303C38.5303 65.4303 36.6342 65.3991 32.8731 65.3368C33.0152 73.7938 33.3971 82.2018 34.0854 90.6365C37.367 91.0288 40.6695 91.219 43.9743 91.2062C43.6813 95.8041 43.3882 100.402 43.1839 105.004C38.5229 104.896 33.9107 104.025 29.5294 102.427C22.1893 74.3635 22.6644 44.5104 30.0933 16.5133C34.482 14.9777 39.0909 14.1689 43.739 14.1187C43.6235 18.7478 43.5303 23.3768 43.4326 28.0104C40.4652 28.0188 37.5004 28.1897 34.5516 28.5222C33.9211 35.23 33.4592 41.9243 33.1351 48.6543C36.8429 48.5386 38.7346 48.503 42.5756 48.4807C42.5045 54.1424 42.4483 59.7923 42.4068 65.4303Z" fill="#393939"/>
<path d="M65.4442 65.1276C61.8607 65.2344 60.0179 65.2789 56.2657 65.3368C55.9904 73.816 55.4841 82.2507 54.6982 90.7077C57.8629 90.4144 61.0068 89.9269 64.112 89.2478C62.9708 93.6587 61.6076 98.0786 60.049 102.361C55.6735 103.976 51.0644 104.864 46.4033 104.991C47.4912 74.724 47.8953 44.457 47.0161 14.1899C51.6382 14.3822 56.1986 15.3247 60.5197 16.9807C61.8278 21.213 62.866 25.5243 63.628 29.8887C60.8412 29.3029 58.0248 28.8691 55.1911 28.589C55.7284 35.2656 56.0792 41.9688 56.2968 48.6855C60.0046 48.8012 61.8252 48.8813 65.3687 49.0861C65.6322 54.4184 65.6573 59.7656 65.4442 65.1276Z" fill="#393939"/>
<path d="M63.4282 18.1602C65.9744 19.2644 68.3913 20.6467 70.6352 22.2819C77.3758 27.4985 83.7524 34.9451 86.8918 42.908C87.4351 44.2874 87.8962 45.6979 88.2728 47.132C90.3243 54.3472 89.605 67.5178 79.7826 68.5415L77.5623 68.7596C76.0037 79.3486 73.295 88.7225 68.4948 98.27C66.7168 99.402 64.8484 100.385 62.9087 101.208C72.1893 74.4614 72.7089 44.9777 63.4282 18.1602ZM78.0286 55.2552L79.2897 55.313C82.1449 55.4377 82.74 52.0593 81.4744 45.73C81.1378 43.9376 80.7095 42.1637 80.1911 40.4154C78.8101 35.6261 77.0117 32.6216 74.8625 31.8071C74.3297 31.6024 74.0632 31.5 73.5304 31.3041C75.983 39.078 77.4933 47.1195 78.0286 55.2552Z" fill="#393939"/>
<path d="M104.383 7.75371C105.58 6.54251 106.909 5.4691 108.344 4.55341C113.877 1.60682 110.804 14.7908 110.617 16.411C109.755 23.3823 109.659 30.4274 110.329 37.4199C110.573 39.8323 113.437 51.8947 108.326 50.1543C106.786 49.1755 105.37 48.0143 104.108 46.6958C93.9166 34.2196 94.4761 20.1632 104.383 7.75371ZM104.13 43.5089C104.454 43.6424 104.618 43.7092 104.951 43.8383C106.608 44.4748 106.159 42.4496 105.431 38.6662C104.272 30.9753 104.378 23.146 105.746 15.4896C106.523 11.8932 106.799 10.2196 105.178 10.8294C104.858 10.954 104.698 11.0119 104.387 11.1409C100.484 22.4021 100.315 32.2033 104.13 43.5089Z" fill="#393939"/>
<path d="M120.244 0.195847C118.619 18.178 118.077 36.4763 119.84 54.4985C118.408 54.3358 116.994 54.0378 115.617 53.6083C111.559 36.819 112.065 17.822 115.995 1.08605C117.38 0.654386 118.803 0.356297 120.244 0.195847Z" fill="#393939"/>
<path d="M124.911 54.6632C124.298 36.4406 122.433 18.2849 121.838 0.0578509C123.412 -0.0545396 124.994 -0.00831393 126.559 0.195833C127.402 6.64539 127.988 13.1038 128.49 19.5846C129.005 27.4006 129.312 35.2789 128.934 43.1038H129.152C129.942 35.319 130.555 27.5831 130.799 19.7626C130.799 13.3976 130.662 7.09049 129.769 0.774468C131.223 1.09873 132.642 1.56536 134.005 2.16764C138.597 18.8857 135.04 37.4644 130.537 53.7997C128.705 54.3208 126.815 54.6109 124.911 54.6632Z" fill="#393939"/>
<path d="M149.814 30.0133C147.842 30.1602 146.803 30.2225 144.641 30.3427C144.382 34.7807 143.45 39.1531 141.874 43.3086C143.645 42.7021 145.365 41.958 147.021 41.0831C145.686 43.2581 144.105 45.2714 142.309 47.0831C140.208 49.2434 137.701 50.9663 134.934 52.1528C140.64 35.8308 140.964 19.1038 135.284 2.74628C138.018 3.96571 140.486 5.71083 142.549 7.88277C144.24 9.53149 145.661 11.4378 146.759 13.5311C145.268 12.7609 143.725 12.0975 142.141 11.546C143.412 14.8115 144.204 18.245 144.49 21.7389C146.621 21.9659 147.647 22.0905 149.587 22.3665C150.052 24.8889 150.128 27.4677 149.814 30.0133Z" fill="#393939"/>
</g>
<defs>
<clipPath id="clip0">
<rect width="150" height="105" fill="white"/>
</clipPath>
</defs>
</svg>
